# xmcd
#
# Track frame offsets:
#	300
#	14494
#	29434
#	39283
#	57295
#	74225
#	91833
#	105476
#	122770
#	137389
#	151849
#	164801
#	174117
#	185759
#
# Disc length: 2660 seconds
#
# Revision: 1
# Processed by: cddbd v1.5.2PL0 Copyright (c) Steve Scherf et al.
# Submitted via: audiograbber 1.83.01
#
DISCID=ba0a600e
DTITLE=Various Artist - Broken Bridges
DYEAR=2006
DGENRE=Country
TTITLE0=Broken Bridges (Toby Keith)
TTITLE1=Thinkin' 'Bout You (Fred Eaglesmith)
TTITLE2=Crash Here Tonight (Toby Keith)
TTITLE3=Broken (Lindsey Haun)
TTITLE4=Along For The Ride (Matraca Berg)
TTITLE5=Uncloudy Day (Toby Keith, Willie Nelson, Bebe Winans)
TTITLE6=What's Up With That (Scotty Emerick)
TTITLE7=High On The Mountain (Flynnville Train)
TTITLE8=The Battlefield (Sonya Isaacs)
TTITLE9=Can't Go Back (Toby Keith)
TTITLE10=The Waiting Game (Poor Richard's Hound)
TTITLE11=Big Bull Rider (Toby Keith)
TTITLE12=Zig Zag Stop (Toby Keith)
TTITLE13=Jacky Don Tucker (Play By The Rules Miss All The Fun) (Toby Keith)
EXTD=
EXTT0=
EXTT1=
EXTT2=
EXTT3=
EXTT4=
EXTT5=
EXTT6=
EXTT7=
EXTT8=
EXTT9=
EXTT10=
EXTT11=
EXTT12=
EXTT13=
PLAYORDER=
